<?xml version="1.0" encoding="UTF-8" standalone="no"?>
<svg
   viewBox="0 0 32 32"
   width="32"
   height="32"
   version="1.1"
   id="svg1"
   xmlns="http://www.w3.org/2000/svg"
   xmlns:svg="http://www.w3.org/2000/svg">
  <defs
     id="defs1" />
  <path
     d="M 16,0 C 7.178017,0 0,7.1780234 0,16 0,24.821977 7.178017,32 16,32 24.821983,32 32,24.821977 32,16 32,7.1780234 24.821983,0 16,0 Z m 0,2.4615385 C 23.49167,2.4615385 29.538462,8.5083351 29.538462,16 29.538462,23.491665 23.49167,29.538462 16,29.538462 8.5083302,29.538462 2.4615385,23.491665 2.4615385,16 2.4615385,8.5083351 8.5083302,2.4615385 16,2.4615385 Z m 0,4.9230769 a 1.2307692,1.2307692 0 0 0 0,2.4615384 1.2307692,1.2307692 0 0 0 0,-2.4615384 z m -0.01923,4.9062496 a 1.2308923,1.2308923 0 0 0 -1.211538,1.247597 v 9.846153 a 1.2308923,1.2308923 0 1 0 2.461538,0 v -9.846153 a 1.2308923,1.2308923 0 0 0 -1.25,-1.247597 z"
     id="path1"
     style="fill:#464646;fill-opacity:1;stroke-width:1.23077" />
</svg>
