<?xml version="1.0" encoding="UTF-8" standalone="no"?>
<!-- Uploaded to: SVG Repo, www.svgrepo.com, Transformed by: SVG Repo Mixer Tools -->

<svg
   width="800"
   height="800"
   viewBox="0 0 24 24"
   fill="none"
   version="1.1"
   id="svg2"
   xmlns="http://www.w3.org/2000/svg"
   xmlns:svg="http://www.w3.org/2000/svg">
  <defs
     id="defs2" />
  <g
     id="SVGRepo_iconCarrier"
     transform="matrix(1.2,0,0,1.2,-2.4,-2.4)">
    <path
       d="M 2,6 C 2,4.11438 2,3.17157 2.58579,2.58579 3.17157,2 4.11438,2 6,2 7.88562,2 8.82843,2 9.41421,2.58579 10,3.17157 10,4.11438 10,6 v 12 c 0,1.8856 0,2.8284 -0.58579,3.4142 C 8.82843,22 7.88562,22 6,22 4.11438,22 3.17157,22 2.58579,21.4142 2,20.8284 2,19.8856 2,18 Z"
       fill="#ffffff"
       id="path1" />
    <path
       d="M 14,6 C 14,4.11438 14,3.17157 14.5858,2.58579 15.1716,2 16.1144,2 18,2 19.8856,2 20.8284,2 21.4142,2.58579 22,3.17157 22,4.11438 22,6 v 12 c 0,1.8856 0,2.8284 -0.5858,3.4142 C 20.8284,22 19.8856,22 18,22 16.1144,22 15.1716,22 14.5858,21.4142 14,20.8284 14,19.8856 14,18 Z"
       fill="#ffffff"
       id="path2" />
  </g>
</svg>
