<?xml version="1.0" encoding="UTF-8" standalone="no"?>
<!-- Uploaded to: SVG Repo, www.svgrepo.com, Transformed by: SVG Repo Mixer Tools -->

<svg
   width="800"
   height="800"
   viewBox="0 0 24 24"
   fill="none"
   stroke="#ffffff"
   stroke-width="1.68"
   version="1.1"
   id="svg1"
   xmlns="http://www.w3.org/2000/svg"
   xmlns:svg="http://www.w3.org/2000/svg">
  <defs
     id="defs1" />
  <g
     id="SVGRepo_iconCarrier">
    <path
       d="m 19.516433,1.0770438 c 0.336819,0.1394977 0.556357,0.4681209 0.556357,0.832625 v 5.0981055 c 0,0.4977413 -0.403509,0.9012264 -0.901226,0.9012264 h -5.098177 c -0.364456,0 -0.693103,-0.2195748 -0.832613,-0.5563331 -0.13939,-0.3367703 -0.06236,-0.7244057 0.195386,-0.9821565 L 15.362381,4.4442899 C 12.198115,3.1208329 8.4113534,3.7478221 5.8367538,6.3224217 c -3.4022017,3.4022136 -3.4022017,8.9182003 0,12.3203893 3.4021897,3.40219 8.9182002,3.40219 12.3203892,0 1.978132,-1.978131 2.80666,-4.670035 2.483781,-7.249225 -0.06189,-0.493872 0.288392,-0.944365 0.782264,-1.006249 0.493872,-0.06176 0.944365,0.288392 1.00625,0.782265 0.389089,3.107549 -0.60959,6.359534 -2.99772,8.747783 -4.106107,4.106108 -10.763407,4.106108 -14.8694906,0 -4.1060955,-4.106107 -4.1060955,-10.7634062 0,-14.8694897 C 7.8527493,1.7573615 12.779826,1.1045851 16.720469,3.0861778 l 1.813868,-1.8137723 c 0.25775,-0.2577386 0.645278,-0.33484756 0.982096,-0.1953617 z"
       fill="#ffffff"
       id="path1"
       style="stroke-width:2.01875" />
  </g>
</svg>
