<?xml version="1.0" encoding="UTF-8" standalone="no"?>
<!-- Uploaded to: SVG Repo, www.svgrepo.com, Transformed by: SVG Repo Mixer Tools -->

<svg
   width="800"
   height="800"
   viewBox="0 0 24 24"
   fill="none"
   version="1.1"
   id="svg1"
   xmlns="http://www.w3.org/2000/svg"
   xmlns:svg="http://www.w3.org/2000/svg">
  <defs
     id="defs1" />
  <g
     id="SVGRepo_iconCarrier">
    <path
       fill-rule="evenodd"
       clip-rule="evenodd"
       d="M 14.134545,0.18268798 C 13.690185,0 13.126785,0 11.999986,0 10.873185,0 10.309785,0 9.8654252,0.18268798 c -0.59256,0.243588 -1.0633321,0.7108081 -1.308768,1.29886812 -0.1120441,0.268452 -0.155892,0.580644 -0.1730521,1.036032 -0.025212,0.6692281 -0.371028,1.2886801 -0.955416,1.6235281 -0.5843881,0.3348361 -1.297836,0.322332 -1.8944162,0.0094 -0.4059719,-0.212952 -0.70032,-0.331368 -0.9905999,-0.369288 -0.6358801,-0.083088 -1.2789721,0.087924 -1.7877961,0.475416 -0.3816241,0.290616 -0.6633241,0.77484 -1.2267121,1.7432761 -0.56338806,0.968448 -0.84507611,1.45266 -0.90786009,1.9259761 -0.083724,0.631068 0.088596,1.2693001 0.47903999,1.7743081 0.1782121,0.2305201 0.4286641,0.4241995 0.8173801,0.6666005 0.5714521,0.356399 0.9391441,0.96348 0.939108,1.6332 -3.59e-5,0.669719 -0.3677159,1.27668 -0.939108,1.632959 -0.388776,0.24252 -0.639276,0.436321 -0.8175,0.666841 C 0.70928076,14.80476 0.53697271,15.44292 0.62068475,16.074 c 0.0627837,0.473281 0.34448398,0.957601 0.90786005,1.926001 0.5633881,0.9684 0.8450881,1.45272 1.2267121,1.74324 0.5088239,0.38748 1.1519161,0.55848 1.787796,0.47544 0.290268,-0.03792 0.5845921,-0.15636 0.9905281,-0.36924 0.596628,-0.31296 1.3101241,-0.32544 1.8945481,0.0093 0.584424,0.334921 0.9302521,0.954361 0.955476,1.623721 0.01716,0.45528 0.061008,0.767519 0.1730521,1.03596 0.2454359,0.588 0.716208,1.05528 1.308768,1.29888 0.4443598,0.18264 1.0077598,0.18264 2.1345608,0.18264 1.126799,0 1.690199,0 2.134559,-0.18264 0.592561,-0.2436 1.063321,-0.71088 1.30872,-1.29888 0.112081,-0.268441 0.156001,-0.58068 0.173161,-1.03608 0.0252,-0.66924 0.37092,-1.28868 0.95532,-1.623601 0.5844,-0.334919 1.29792,-0.322319 1.89456,-0.0093 0.40596,0.21288 0.7002,0.3312 0.99048,0.36912 0.63588,0.08315 1.27896,-0.08784 1.78776,-0.47532 0.38172,-0.29064 0.663361,-0.77484 1.22676,-1.74336 0.5634,-0.9684 0.84504,-1.4526 0.907921,-1.925881 0.08364,-0.63108 -0.08868,-1.269359 -0.479041,-1.774319 -0.178319,-0.23052 -0.42876,-0.42432 -0.81756,-0.666721 -0.57132,-0.356279 -0.939,-0.963359 -0.939,-1.633079 0,-0.669721 0.36768,-1.27656 0.939,-1.63284 0.38892,-0.24252 0.63936,-0.4362009 0.81768,-0.6668405 0.39036,-0.504924 0.562681,-1.1431561 0.47904,-1.7742361 -0.06288,-0.4733041 -0.34452,-0.9575281 -0.90792,-1.9259641 -0.5634,-0.9684361 -0.84504,-1.4526601 -1.22676,-1.7432761 -0.5088,-0.387492 -1.15188,-0.558504 -1.78776,-0.475416 -0.29028,0.037921 -0.58464,0.156324 -0.99048,0.3692521 -0.59664,0.3129479 -1.31016,0.3254639 -1.89456,-0.00941 -0.5844,-0.3348583 -0.93024,-0.9543583 -0.955561,-1.6236224 -0.01716,-0.455352 -0.06096,-0.767532 -0.17304,-1.035972 C 15.197866,0.89349608 14.727106,0.42627598 14.134545,0.18268798 Z M 11.999986,15.600001 c 2.003399,0 3.62736,-1.611721 3.62736,-3.6 0,-1.98828 -1.623961,-3.6000006 -3.62736,-3.6000006 -2.0034008,0 -3.6274089,1.6117206 -3.6274089,3.6000006 0,1.988279 1.6240081,3.6 3.6274089,3.6 z"
       fill="#ffffff"
       id="path1"
       style="stroke-width:1.2" />
  </g>
</svg>
