<svg width="587" height="196" viewBox="0 0 587 196" fill="none" xmlns="http://www.w3.org/2000/svg">
<path d="M572.939 164.379C555.416 163.108 537.91 161.749 520.383 160.612C510.667 159.983 500.936 159.777 491.214 159.303C482.614 158.88 474.019 158.335 465.422 157.845C463.273 157.725 461.138 157.583 458.986 157.542C444.339 157.298 429.687 156.831 415.056 156.934C404.516 157.001 394.003 157.862 383.476 158.321C377.331 158.586 371.166 158.672 365.031 159.038C360.592 159.307 356.183 159.901 351.765 160.383C349.181 160.661 346.62 161.085 344.028 161.252C339.127 161.56 334.218 161.735 329.307 161.965C328.48 162.003 327.655 161.941 326.84 162.013C322.682 162.415 318.524 162.805 314.377 163.263C310.678 163.67 307.003 164.189 303.305 164.607C298.573 165.134 293.817 165.57 289.072 166.086C285.714 166.448 282.343 166.777 279.034 167.287C273.274 168.179 267.463 168.959 261.826 170.213C243.534 174.285 225.33 178.583 207.038 182.643C205.946 182.884 203.457 182.016 203.264 181.339C202.864 179.997 203.17 178.233 204.01 177.057C204.608 176.218 206.529 175.906 207.935 175.586C219.033 173.105 230.108 170.501 241.292 168.301C253.388 165.922 265.536 163.634 277.788 161.863C288.393 160.325 299.173 159.585 309.871 158.463C320.312 157.365 330.722 155.965 341.205 155.192C352.761 154.335 364.382 153.97 375.99 153.55C382.676 153.314 389.493 153.965 396.062 153.19C404.48 152.2 412.725 152.689 421.108 153.105C427.558 153.43 434.061 152.206 440.545 152.299C449.534 152.423 458.517 153.127 467.507 153.62C474.428 153.996 481.335 154.404 488.255 154.813C493.811 155.141 499.37 155.358 504.907 155.83C513.171 156.532 521.433 157.323 529.677 158.213C537.139 159.021 544.562 160.151 552.026 160.914C557.262 161.442 562.555 161.527 567.809 161.956C569.659 162.11 571.454 162.697 573.282 163.085C573.172 163.516 573.049 163.947 572.939 164.379Z" fill="url(#paint0_linear_41_35)"/>
<g clip-path="url(#clip0_41_35)" filter="url(#filter0_i_41_35)">
<path d="M58.3049 157.037C45.0811 160.829 31.2786 153.291 27.5342 140.233C23.7897 127.175 31.4988 113.462 44.7227 109.67C57.9466 105.879 71.749 113.416 75.4935 126.475C79.2379 139.533 71.5288 153.245 58.3049 157.037ZM46.1535 114.66C35.7164 117.653 29.6241 128.473 32.5811 138.786C35.5382 149.098 46.4387 155.046 56.8758 152.053C67.3129 149.061 73.4052 138.24 70.4482 127.928C67.4911 117.615 56.5906 111.667 46.1535 114.66Z" fill="#3688FF"/>
<path d="M71.7694 112.304C70.9588 112.536 70.0554 112.378 69.3599 111.806C68.076 110.745 66.6837 109.797 65.2185 108.997C63.7532 108.197 62.1981 107.53 60.6062 107.025C59.2313 106.585 58.4856 105.123 58.934 103.762C59.3883 102.398 60.8708 101.651 62.244 102.085C64.154 102.695 66.0163 103.495 67.7701 104.453C69.5238 105.41 71.1995 106.542 72.7363 107.815C73.844 108.731 73.9879 110.371 73.0477 111.469C72.7054 111.884 72.2546 112.165 71.7694 112.304ZM23.1813 126.236C22.6961 126.375 22.1648 126.376 21.6508 126.213C20.2759 125.773 19.5242 124.313 19.9785 122.95C20.6073 121.056 21.4285 119.208 22.4082 117.466C23.388 115.725 24.5449 114.065 25.8401 112.53C26.7727 111.428 28.4337 111.281 29.5414 112.196C30.6491 113.112 30.7913 114.746 29.8528 115.85C28.7719 117.128 27.8049 118.511 26.9863 119.966C26.1677 121.422 25.4874 122.957 24.9625 124.543C24.68 125.389 23.9919 126.004 23.1813 126.236ZM37.4634 167.737C36.9545 167.883 36.3962 167.878 35.8637 167.696C34.4981 167.221 33.7905 165.736 34.2811 164.388L36.1832 159.119C36.6721 157.765 38.1722 157.056 39.5378 157.531C40.9033 158.006 41.611 159.491 41.1204 160.839L39.2183 166.108C38.9274 166.925 38.2503 167.511 37.4634 167.737ZM81.6495 155.067C80.8625 155.292 79.9836 155.152 79.2905 154.611L74.8854 151.151C73.7532 150.262 73.5679 148.633 74.4743 147.507C75.3808 146.38 77.0301 146.192 78.1607 147.076L82.5658 150.536C83.698 151.425 83.8833 153.054 82.9769 154.18C82.6236 154.623 82.1524 154.922 81.6495 155.067ZM52.5869 137.096C52.1609 137.218 51.6988 137.237 51.2522 137.131C50.3321 136.914 49.609 136.224 49.3526 135.33L47.2065 127.845C46.8111 126.466 47.6212 125.026 49.0176 124.626C50.4139 124.226 51.864 125.018 52.2594 126.396L53.1406 129.47L55.2094 127.283C56.2018 126.233 57.8609 126.169 58.9153 127.144C59.9696 128.119 60.024 129.76 59.0315 130.809L53.7906 136.359C53.451 136.715 53.0366 136.967 52.5869 137.096Z" fill="#5F6379"/>
</g>
<path d="M109.101 107.145L110.124 107.11C117.075 106.867 121.618 109.227 123.756 114.19L124.019 116.23L124.041 116.87C124.214 121.816 121.368 126.505 115.503 130.936C114.068 131.413 113.36 131.908 113.378 132.419C115.311 138.884 116.35 144.184 116.494 148.32L116.523 149.152C116.583 150.857 115.909 151.735 114.502 151.784C113.432 151.693 112.88 151.179 112.847 150.241L112.791 148.642C112.62 143.738 111.538 138.439 109.547 132.745C106.082 132.567 104.131 131.696 103.692 130.132L103.678 129.748C103.652 128.981 104.228 128.363 105.407 127.895L108.255 128.756L108.25 128.628C106.58 122.368 105.706 118.129 105.629 115.912C105.585 114.675 106.289 114.032 107.739 113.981C109.06 113.935 109.8 116.172 109.958 120.692L112.079 128.238C115.113 127.108 117.431 125.02 119.032 121.976C119.868 120.239 120.263 118.709 120.217 117.388L120.188 116.556C120.066 113.06 117.012 111.181 111.026 110.92L108.403 111.012C102.584 111.856 99.7114 113.343 99.7859 115.475L99.7993 115.859C99.8216 116.499 100.198 117.489 100.928 118.83C100.96 119.768 100.235 120.391 98.7515 120.699C97.0176 119.948 96.1067 118.315 96.0189 115.799C95.8551 111.109 100.216 108.224 109.101 107.145ZM149.387 123.669C152.542 123.559 155.012 125.821 156.796 130.455L157.099 131.789C157.258 136.352 155.289 141.095 151.192 146.02C149.542 147.657 147.842 148.506 146.094 148.567C143.536 148.657 141.672 147.249 140.503 144.344C140.072 142.993 139.838 141.806 139.802 140.782L139.776 140.015C139.54 133.278 141.814 128.075 146.595 124.407C147.433 123.951 148.364 123.705 149.387 123.669ZM143.572 140.523C143.673 143.422 144.47 144.846 145.962 144.794C149.075 144.685 151.516 140.608 153.284 132.563L153.241 131.348C152.424 128.729 151.035 127.454 149.073 127.523C148.306 127.549 147.941 128.096 147.978 129.162C148.003 129.887 147.17 130.492 145.48 130.978C144.075 133.546 143.439 136.728 143.572 140.523ZM172.877 124.578C173.138 123.502 173.802 122.945 174.868 122.908C175.934 122.87 176.675 123.912 177.09 126.032L177.346 126.023L180.266 125.281C181.631 125.233 182.997 126.466 184.366 128.98L184.622 128.971C186.395 125.963 188.262 124.425 190.224 124.357C194.43 124.978 196.614 127.634 196.778 132.325L196.984 134.559L196.86 147.499L196.902 148.714C196.939 149.78 196.3 150.422 194.984 150.638C193.662 150.685 192.947 149.151 192.838 146.039L193.201 134.435C193.053 130.171 191.976 128.074 189.972 128.144C188.821 128.184 187.532 131.025 186.107 136.668C185.52 143.092 184.971 146.313 184.459 146.331C183.734 146.356 183.377 146.518 183.388 146.817C182.06 146.692 181.375 146.033 181.333 144.839L181.895 137.071C181.581 131.745 180.954 129.099 180.016 129.132L179.824 129.138C178.787 129.986 178.31 131.603 178.393 133.991L178.511 137.381L178.597 147.176C178.336 148.253 177.694 148.809 176.67 148.845C175.775 148.876 175.173 148.15 174.865 146.666L174.346 139.128L174.513 132.91C174.145 129.721 173.6 126.944 172.877 124.578ZM222.475 121.117C225.63 121.007 228.1 123.269 229.884 127.903L230.187 129.237C230.346 133.799 228.377 138.543 224.28 143.468C222.63 145.105 220.93 145.954 219.182 146.015C216.623 146.105 214.76 144.697 213.591 141.792C213.16 140.441 212.926 139.253 212.89 138.23L212.864 137.462C212.628 130.725 214.901 125.523 219.683 121.855C220.521 121.399 221.452 121.153 222.475 121.117ZM216.66 137.97C216.761 140.87 217.558 142.294 219.05 142.241C222.163 142.133 224.603 138.056 226.372 130.011L226.329 128.795C225.512 126.177 224.123 124.902 222.161 124.97C221.394 124.997 221.029 125.544 221.066 126.61C221.091 127.335 220.258 127.94 218.568 128.426C217.163 130.994 216.527 134.175 216.66 137.97ZM259.528 108.808C260.253 108.783 260.938 109.442 261.582 110.786L259.389 128.665L259.563 133.654C259.745 138.857 260.646 141.429 262.266 141.373C263.35 141.847 263.907 142.511 263.937 143.364C263.971 144.344 263.138 144.95 261.439 145.18C259.562 145.245 258.031 143.57 256.844 140.153L256.205 140.176C254.748 143.685 252.889 145.478 250.629 145.557C247.985 145.65 246.316 143.701 245.622 139.713C245.46 135.065 248.401 130.031 254.444 124.612C255.681 124.568 256.239 122.82 256.118 119.366C256.814 112.383 257.95 108.864 259.528 108.808ZM249.378 139.069L249.438 140.796L250.497 141.784L250.881 141.77C252.246 141.723 253.701 137.552 255.247 129.258L254.863 129.272C251.119 133.288 249.29 136.553 249.378 139.069ZM287.755 118.837C290.911 118.727 293.38 120.989 295.165 125.623L295.467 126.957C295.627 131.52 293.658 136.263 289.56 141.188C287.91 142.825 286.21 143.674 284.462 143.736C281.904 143.825 280.04 142.417 278.871 139.512C278.44 138.161 278.206 136.974 278.171 135.95L278.144 135.183C277.909 128.446 280.182 123.243 284.963 119.575C285.801 119.119 286.732 118.873 287.755 118.837ZM281.94 135.691C282.041 138.59 282.838 140.014 284.33 139.962C287.443 139.853 289.884 135.776 291.652 127.731L291.61 126.516C290.792 123.897 289.403 122.622 287.442 122.691C286.674 122.718 286.309 123.264 286.346 124.33C286.371 125.055 285.539 125.66 283.848 126.146C282.443 128.714 281.807 131.896 281.94 135.691ZM318.566 116.673C321.253 116.579 322.917 118.399 323.56 122.134L323.58 122.71C323.725 126.846 321.725 130.715 317.582 134.318C320.14 136.662 324.51 137.726 330.693 137.51C331.642 137.776 332.134 138.421 332.169 139.444C332.21 140.595 331.484 141.197 329.991 141.249C325.812 141.395 321.383 140.482 316.703 138.511L316.768 140.366C316.922 144.758 316.06 146.987 314.184 147.052C312.862 147.098 312.113 144.584 311.935 139.51L311.761 134.521L311.507 132.737L311.883 130.675L311.221 124.55L311.212 124.294C311.172 123.143 311.741 122.333 312.92 121.865C314.467 118.481 316.349 116.75 318.566 116.673ZM315.858 130.792C317.094 130.749 318.403 128.483 319.783 123.995L319.687 121.245L318.89 120.44L318.314 120.46C316.483 121.805 315.664 125.249 315.858 130.792ZM355.909 116.457C359.064 116.347 361.534 118.609 363.318 123.243L363.621 124.577C363.78 129.14 361.811 133.883 357.714 138.808C356.063 140.445 354.364 141.295 352.616 141.356C350.057 141.445 348.194 140.037 347.025 137.132C346.593 135.781 346.36 134.594 346.324 133.57L346.297 132.803C346.062 126.066 348.335 120.863 353.117 117.195C353.955 116.739 354.885 116.493 355.909 116.457ZM350.093 133.311C350.195 136.21 350.991 137.634 352.484 137.582C355.597 137.473 358.037 133.396 359.805 125.351L359.763 124.136C358.946 121.517 357.556 120.242 355.595 120.311C354.827 120.338 354.462 120.884 354.499 121.95C354.525 122.675 353.692 123.28 352.001 123.766C350.597 126.334 349.961 129.516 350.093 133.311ZM426.483 97.7271L445.629 95.8417C446.183 95.8224 446.735 96.3368 447.284 97.3849C447.34 99.0053 445.492 99.881 441.74 100.012L430.569 101.042L430.318 101.179C431.627 108.093 432.62 121.271 433.299 140.715C433.152 142.599 432.502 143.561 431.351 143.601C430.242 143.64 429.573 142.809 429.343 141.11L428.825 126.271C428.479 116.378 427.743 108.143 426.617 101.565C419.01 102.556 415.223 103.542 415.257 104.523L414.691 104.799C413.355 104.461 412.671 103.802 412.636 102.821C412.554 100.476 417.17 98.7781 426.483 97.7271ZM454.347 103.798C455.98 104.083 456.815 104.779 456.854 105.888C456.469 107.097 455.808 107.718 454.87 107.75C453.281 107.507 452.465 106.746 452.42 105.467C452.81 104.386 453.452 103.83 454.347 103.798ZM457.091 112.668C457.773 112.644 458.37 113.242 458.882 114.463L458.465 119.024L458.57 122.03C458.692 125.527 459.449 130.09 460.841 135.719C460.443 136.544 459.732 136.975 458.709 137.01C456.961 137.071 455.631 131.995 454.719 121.78L454.641 119.542C454.483 115.022 455.3 112.731 457.091 112.668ZM476.569 113.973C476.831 112.897 477.494 112.34 478.56 112.302C479.626 112.265 480.367 113.307 480.783 115.427L481.039 115.418L483.959 114.676C485.323 114.628 486.69 115.861 488.058 118.375L488.314 118.366C490.087 115.358 491.955 113.82 493.916 113.751C498.122 114.373 500.307 117.029 500.47 121.72L500.676 123.954L500.552 136.894L500.594 138.109C500.632 139.175 499.992 139.817 498.676 140.033C497.355 140.079 496.639 138.546 496.531 135.433L496.894 123.83C496.745 119.566 495.668 117.469 493.664 117.539C492.513 117.579 491.225 120.42 489.799 126.063C489.213 132.487 488.663 135.708 488.152 135.726C487.427 135.751 487.07 135.913 487.08 136.212C485.752 136.087 485.067 135.428 485.026 134.234L485.587 126.466C485.273 121.14 484.647 118.494 483.709 118.527L483.517 118.533C482.479 119.381 482.002 120.998 482.085 123.386L482.204 126.776L482.29 136.571C482.028 137.648 481.386 138.204 480.363 138.239C479.467 138.271 478.866 137.545 478.558 136.061L478.038 128.523L478.205 122.305C477.838 119.116 477.292 116.339 476.569 113.973ZM521.73 111.82C523.437 111.803 526.42 114.687 530.678 120.473L530.844 121.555C530.885 122.749 527.996 123.768 522.177 124.612L521.992 124.81L522.001 125.066C523.03 128.873 524.035 130.759 525.016 130.724L525.784 130.698C527.148 130.65 529.165 129.107 531.834 126.068L532.217 126.054C533.07 126.024 533.753 126.62 534.265 127.84C534.301 128.863 532.572 130.695 529.078 133.336C528.159 133.923 527.043 134.368 525.73 134.67C522.276 134.791 519.754 131.634 518.163 125.2C516.191 124.97 515.182 124.194 515.136 122.872C515.103 121.934 515.807 121.291 517.246 120.942L517.255 121.197L517.886 120.919L517.83 119.32C517.658 114.417 518.959 111.916 521.73 111.82ZM522.275 116.411L521.699 116.431L521.526 118.807L521.595 120.79L521.851 120.781C524.236 120.612 525.421 120.315 525.406 119.888C524.239 118.264 523.196 117.105 522.275 116.411ZM556.666 108.358C559.353 108.264 561.017 110.085 561.66 113.819L561.68 114.395C561.824 118.531 559.825 122.401 555.681 126.003C558.24 128.347 562.61 129.412 568.793 129.196C569.741 129.461 570.234 130.106 570.269 131.129C570.309 132.281 569.583 132.882 568.091 132.934C563.912 133.08 559.483 132.168 554.803 130.197L554.868 132.051C555.021 136.443 554.16 138.672 552.284 138.738C550.962 138.784 550.212 136.27 550.035 131.196L549.861 126.207L549.607 124.422L549.983 122.36L549.321 116.235L549.312 115.98C549.272 114.828 549.841 114.019 551.02 113.55C552.567 110.166 554.449 108.436 556.666 108.358ZM553.957 122.477C555.194 122.434 556.502 120.168 557.883 115.68L557.787 112.93L556.99 112.125L556.414 112.145C554.583 113.49 553.764 116.934 553.957 122.477Z" fill="url(#paint1_linear_41_35)"/>
<g filter="url(#filter1_d_41_35)">
<path d="M48.8946 78.776C47.0386 80.376 44.8626 81.624 42.3666 82.52C39.9346 83.352 37.3426 83.768 34.5906 83.768C32.0946 83.768 29.7586 83.512 27.5826 83C25.4066 82.424 23.4546 81.72 21.7266 80.888C19.9986 80.12 18.4626 79.256 17.1186 78.296C15.8386 77.272 14.8466 76.28 14.1426 75.32V64.856H18.9426V73.496C20.6706 75.032 22.7826 76.344 25.2786 77.432C27.7746 78.456 30.7186 78.968 34.1106 78.968C36.1586 78.968 38.1106 78.68 39.9666 78.104C41.8226 77.464 43.5186 76.568 45.0546 75.416C46.4626 74.2 47.5826 72.76 48.4146 71.096C49.3106 69.368 49.7586 67.416 49.7586 65.24C49.7586 63.256 49.4706 61.528 48.8946 60.056C48.3826 58.52 47.6466 57.24 46.6866 56.216C45.4706 54.936 44.0946 53.912 42.5586 53.144C41.0226 52.376 39.3586 51.64 37.5666 50.936C35.3266 50.168 32.9906 49.432 30.5586 48.728C28.1266 48.024 25.8866 47.096 23.8386 45.944C21.7906 44.792 20.0626 43.256 18.6546 41.336C17.3106 39.416 16.6066 36.76 16.5426 33.368C16.4146 31.256 16.6706 29.144 17.3106 27.032C17.9506 24.92 18.9746 23 20.3826 21.272C21.7906 19.544 23.6146 18.136 25.8546 17.048C28.1586 15.96 30.9746 15.416 34.3026 15.416C35.3906 15.416 36.5746 15.48 37.8546 15.608C39.1986 15.736 40.5426 15.96 41.8866 16.28C43.2306 16.664 44.6066 17.208 46.0146 17.912C47.4866 18.552 48.8626 19.416 50.1426 20.504V30.584H45.3426V22.808C44.1266 22.104 42.5906 21.496 40.7346 20.984C38.8786 20.472 36.7346 20.216 34.3026 20.216C32.0626 20.216 30.1426 20.568 28.5426 21.272C26.9426 21.976 25.5986 22.936 24.5106 24.152C23.4866 25.368 22.7186 26.744 22.2066 28.28C21.7586 29.752 21.5346 31.32 21.5346 32.984C21.5346 35.608 22.1426 37.656 23.3586 39.128C24.6386 40.6 26.2706 41.784 28.2546 42.68C30.6866 43.832 33.4706 44.824 36.6066 45.656C39.7426 46.488 42.7186 47.576 45.5346 48.92C48.2226 50.2 50.4306 52.12 52.1586 54.68C53.8866 57.176 54.7506 60.632 54.7506 65.048C54.7506 67.928 54.2066 70.52 53.1186 72.824C52.0946 75.128 50.6866 77.112 48.8946 78.776ZM72.7544 83H53.5544V78.2H60.7544V51.8H53.5544V47H65.7464V78.2H72.7544V83ZM66.8984 33.944C66.8984 34.968 66.5144 35.832 65.7464 36.536C65.0424 37.24 64.2424 37.592 63.3464 37.592C62.4504 37.592 61.6184 37.24 60.8504 36.536C60.1464 35.832 59.7944 34.968 59.7944 33.944C59.7944 32.92 60.1464 32.056 60.8504 31.352C61.6184 30.648 62.4504 30.296 63.3464 30.296C64.2424 30.296 65.0424 30.648 65.7464 31.352C66.5144 32.056 66.8984 32.92 66.8984 33.944ZM91.9094 83H72.7094V78.2H80.1014V51.8H73.3814V47H84.3254L84.4214 49.784C84.4854 51 84.5494 52.088 84.6134 53.048C84.6774 54.008 84.7414 55.096 84.8054 56.312C86.1494 53.24 88.1974 50.808 90.9494 49.016C93.7014 47.224 96.9014 46.296 100.549 46.232C103.877 46.232 106.565 47.128 108.613 48.92C110.725 50.648 111.941 52.952 112.261 55.832C113.669 52.888 115.717 50.584 118.405 48.92C121.157 47.192 124.293 46.296 127.813 46.232C131.461 46.232 134.309 47.224 136.357 49.208C138.405 51.192 139.493 53.784 139.621 56.984V78.2H146.533V83H127.237V78.2H134.629V58.712C134.501 56.728 133.765 55 132.421 53.528C131.141 52.056 129.189 51.256 126.565 51.128C124.709 51.128 122.917 51.448 121.189 52.088C119.525 52.728 118.053 53.592 116.773 54.68C115.493 55.768 114.437 57.08 113.605 58.616C112.837 60.152 112.421 61.816 112.357 63.608V78.2H119.173V83H99.9734V78.2H107.365V58.712C107.237 56.728 106.501 55 105.157 53.528C103.877 52.056 101.925 51.256 99.3014 51.128C97.4454 51.128 95.6534 51.448 93.9254 52.088C92.1974 52.728 90.6934 53.592 89.4134 54.68C88.1334 55.832 87.0774 57.208 86.2454 58.808C85.4774 60.344 85.0934 62.04 85.0934 63.896V78.2H91.9094V83ZM147.385 107V102.2H153.721V51.8H146.521V47H157.849C157.849 48.28 157.881 49.56 157.945 50.84C158.073 52.12 158.137 53.368 158.137 54.584C159.097 52.472 160.825 50.552 163.321 48.824C165.881 47.096 169.017 46.232 172.729 46.232C175.353 46.232 177.817 46.744 180.121 47.768C182.489 48.728 184.537 50.04 186.265 51.704C187.929 53.432 189.241 55.448 190.201 57.752C191.225 59.992 191.737 62.392 191.737 64.952C191.737 67.576 191.225 70.04 190.201 72.344C189.241 74.584 187.929 76.568 186.265 78.296C184.537 80.024 182.489 81.4 180.121 82.424C177.817 83.384 175.353 83.864 172.729 83.864C170.873 83.864 169.145 83.608 167.545 83.096C165.945 82.648 164.537 82.04 163.321 81.272C162.041 80.504 161.017 79.736 160.249 78.968C159.545 78.136 159.001 77.272 158.617 76.376C158.681 76.888 158.713 77.4 158.713 77.912C158.777 78.424 158.809 78.904 158.809 79.352V102.2H166.585V107H147.385ZM172.729 51.128C170.681 51.128 168.793 51.512 167.065 52.28C165.401 52.984 163.929 53.944 162.649 55.16C161.433 56.44 160.473 57.944 159.769 59.672C159.065 61.336 158.713 63.096 158.713 64.952C158.713 67 159.065 68.888 159.769 70.616C160.537 72.344 161.593 73.848 162.937 75.128C164.217 76.28 165.689 77.208 167.353 77.912C169.017 78.616 170.809 78.968 172.729 78.968C174.649 78.968 176.409 78.648 178.009 78.008C179.673 77.304 181.145 76.344 182.425 75.128C183.769 73.912 184.793 72.44 185.497 70.712C186.265 68.92 186.649 67 186.649 64.952C186.649 62.904 186.265 61.016 185.497 59.288C184.729 57.56 183.673 56.056 182.329 54.776C181.113 53.688 179.673 52.824 178.009 52.184C176.345 51.48 174.585 51.128 172.729 51.128ZM210.938 83H191.738V78.2H198.842V15.8H192.218V11H203.834V78.2H210.938V83ZM235.565 107H216.365V102.2H224.621C226.221 99 227.789 95.8 229.325 92.6C230.925 89.464 232.525 86.328 234.125 83.192C231.501 77.944 228.877 72.728 226.253 67.544C223.693 62.296 221.101 57.048 218.477 51.8H210.893V47H229.613V51.8H223.757C225.997 56.28 228.237 60.728 230.477 65.144C232.717 69.56 234.829 74.008 236.813 78.488C238.669 74.136 240.717 69.72 242.957 65.24C245.197 60.76 247.469 56.28 249.773 51.8H244.109V47H262.253V51.8H255.053C250.829 60.248 246.605 68.664 242.381 77.048C238.221 85.368 234.029 93.752 229.805 102.2H235.565V107ZM303.559 83H284.359V78.2H291.847C296.519 67.192 301.159 56.28 305.767 45.464C310.439 34.648 315.079 23.736 319.687 12.728C324.295 23.736 328.903 34.648 333.511 45.464C338.183 56.28 342.823 67.192 347.431 78.2H355.015V83H335.815V78.2H342.343C340.679 74.296 339.015 70.392 337.351 66.488C335.751 62.584 334.119 58.648 332.455 54.68H306.919C304.999 59.224 303.335 63.16 301.927 66.488C300.519 69.816 298.855 73.72 296.935 78.2H303.559V83ZM318.727 26.648C317.127 30.552 315.495 34.488 313.831 38.456C312.167 42.36 310.535 46.2 308.935 49.976H330.343L320.551 26.648L319.591 23.864C319.463 24.504 319.303 25.048 319.111 25.496C318.983 25.88 318.855 26.264 318.727 26.648ZM374.183 83H354.983V78.2H362.375V51.8H355.655V47H366.599L366.695 49.784C366.759 51 366.823 52.088 366.887 53.048C366.951 54.008 367.015 55.096 367.079 56.312C368.359 53.24 370.407 50.808 373.223 49.016C376.103 47.16 379.303 46.232 382.823 46.232C386.471 46.232 389.319 47.224 391.367 49.208C393.415 51.192 394.503 53.784 394.631 56.984V78.2H401.447V83H382.247V78.2H389.639V58.712C389.511 56.728 388.775 55 387.431 53.528C386.151 52.056 384.199 51.256 381.575 51.128C379.719 51.128 377.927 51.448 376.199 52.088C374.471 52.728 372.967 53.592 371.687 54.68C370.407 55.832 369.351 57.208 368.519 58.808C367.751 60.344 367.367 62.04 367.367 63.896V78.2H374.183V83ZM433.963 78.2C432.235 79.928 430.187 81.304 427.819 82.328C425.515 83.288 423.051 83.768 420.427 83.768C417.739 83.768 415.243 83.288 412.939 82.328C410.699 81.304 408.715 79.928 406.987 78.2C405.259 76.536 403.883 74.584 402.859 72.344C401.899 70.04 401.419 67.576 401.419 64.952C401.419 62.392 401.899 59.96 402.859 57.656C403.883 55.352 405.259 53.336 406.987 51.608C408.715 49.944 410.699 48.632 412.939 47.672C415.243 46.648 417.739 46.136 420.427 46.136C423.051 46.136 425.515 46.648 427.819 47.672C430.187 48.632 432.235 49.944 433.963 51.608C435.627 53.336 436.971 55.352 437.995 57.656C439.019 59.96 439.531 62.392 439.531 64.952C439.531 67.576 439.019 70.04 437.995 72.344C437.035 74.584 435.691 76.536 433.963 78.2ZM410.539 74.744C411.755 76.024 413.195 77.048 414.859 77.816C416.523 78.52 418.347 78.872 420.331 78.872C422.187 78.872 423.947 78.52 425.611 77.816C427.339 77.048 428.843 76.024 430.123 74.744C431.403 73.528 432.395 72.088 433.099 70.424C433.867 68.76 434.251 66.936 434.251 64.952C434.251 63.096 433.867 61.336 433.099 59.672C432.395 57.944 431.403 56.44 430.123 55.16C428.843 53.88 427.339 52.888 425.611 52.184C423.947 51.416 422.187 51.032 420.331 51.032C418.347 51.032 416.523 51.416 414.859 52.184C413.195 52.888 411.755 53.88 410.539 55.16C409.259 56.44 408.235 57.944 407.467 59.672C406.763 61.336 406.411 63.096 406.411 64.952C406.411 66.936 406.763 68.76 407.467 70.424C408.235 72.088 409.259 73.528 410.539 74.744ZM460.536 83H447.768V51.896H439.512V47H447.768V23.576H452.76V47H463.416V51.896H452.76V78.2H460.536V83ZM482.648 83H463.448V78.2H470.84V15.8H463.736V11H475.832V51.992L475.544 56.312C476.888 53.24 478.936 50.84 481.688 49.112C484.44 47.32 487.64 46.36 491.288 46.232C494.936 46.232 497.784 47.224 499.832 49.208C501.88 51.192 502.968 53.784 503.096 56.984V78.2H509.912V83H490.712V78.2H498.104V58.712C497.976 56.728 497.24 55 495.896 53.528C494.616 52.056 492.664 51.256 490.04 51.128C488.184 51.128 486.392 51.448 484.664 52.088C482.936 52.728 481.432 53.592 480.152 54.68C478.872 55.832 477.816 57.208 476.984 58.808C476.216 60.344 475.832 62.04 475.832 63.896V78.2H482.648V83ZM528.796 51.032C526.556 51.032 524.476 51.512 522.556 52.472C520.7 53.368 519.164 54.584 517.948 56.12C516.796 57.592 515.964 59.256 515.452 61.112C514.94 62.968 514.844 64.856 515.164 66.776C519.132 65.24 523.1 63.704 527.068 62.168C531.036 60.632 535.036 59.096 539.068 57.56C537.98 55.64 536.54 54.072 534.748 52.856C532.956 51.64 530.972 51.032 528.796 51.032ZM541.276 78.68C539.676 80.28 537.82 81.528 535.708 82.424C533.596 83.32 531.292 83.768 528.796 83.768C526.172 83.768 523.708 83.288 521.404 82.328C519.1 81.304 517.116 79.96 515.452 78.296C513.724 76.568 512.348 74.584 511.324 72.344C510.364 70.04 509.884 67.576 509.884 64.952C509.884 62.392 510.364 59.96 511.324 57.656C512.348 55.352 513.724 53.336 515.452 51.608C517.116 49.944 519.1 48.632 521.404 47.672C523.708 46.648 526.172 46.136 528.796 46.136C530.78 46.136 532.668 46.52 534.46 47.288C536.252 47.992 537.884 48.984 539.356 50.264C540.7 51.48 541.884 52.952 542.908 54.68C543.996 56.408 544.828 58.296 545.404 60.344C540.604 62.2 535.804 64.056 531.004 65.912C526.204 67.768 521.404 69.624 516.604 71.48C517.692 73.72 519.292 75.512 521.404 76.856C523.58 78.2 526.044 78.872 528.796 78.872C530.652 78.872 532.38 78.552 533.98 77.912C535.58 77.208 536.988 76.248 538.204 75.032L541.276 78.68ZM564.927 83H545.727V78.2H553.119V51.8H546.399V47H557.343L557.631 51.992C557.695 53.272 557.727 54.008 557.727 54.2C557.727 54.392 557.759 55.096 557.823 56.312C558.591 54.712 559.551 53.304 560.703 52.088C561.855 50.808 563.103 49.752 564.447 48.92C565.791 48.024 567.135 47.352 568.479 46.904C569.887 46.456 571.263 46.232 572.607 46.232L572.319 51.128C570.463 51.192 568.735 51.512 567.135 52.088C565.535 52.6 564.127 53.336 562.911 54.296C561.439 55.384 560.255 56.76 559.359 58.424C558.527 60.088 558.111 61.912 558.111 63.896V78.2H564.927V83Z" fill="white"/>
</g>
<defs>
<filter id="filter0_i_41_35" x="13" y="96" width="77.743" height="81.2024" filterUnits="userSpaceOnUse" color-interpolation-filters="sRGB">
<feFlood flood-opacity="0" result="BackgroundImageFix"/>
<feBlend mode="normal" in="SourceGraphic" in2="BackgroundImageFix" result="shape"/>
<feColorMatrix in="SourceAlpha" type="matrix" values="0 0 0 0 0 0 0 0 0 0 0 0 0 0 0 0 0 0 127 0" result="hardAlpha"/>
<feOffset dy="4"/>
<feGaussianBlur stdDeviation="3.8"/>
<feComposite in2="hardAlpha" operator="arithmetic" k2="-1" k3="1"/>
<feColorMatrix type="matrix" values="0 0 0 0 0.633937 0 0 0 0 0.291094 0 0 0 0 0.8625 0 0 0 1 0"/>
<feBlend mode="normal" in2="shape" result="effect1_innerShadow_41_35"/>
</filter>
<filter id="filter1_d_41_35" x="0.0426235" y="0.899992" width="586.664" height="124.2" filterUnits="userSpaceOnUse" color-interpolation-filters="sRGB">
<feFlood flood-opacity="0" result="BackgroundImageFix"/>
<feColorMatrix in="SourceAlpha" type="matrix" values="0 0 0 0 0 0 0 0 0 0 0 0 0 0 0 0 0 0 127 0" result="hardAlpha"/>
<feOffset dy="4"/>
<feGaussianBlur stdDeviation="7.05"/>
<feComposite in2="hardAlpha" operator="out"/>
<feColorMatrix type="matrix" values="0 0 0 0 0 0 0 0 0 0 0 0 0 0 0 0 0 0 0.35 0"/>
<feBlend mode="normal" in2="BackgroundImageFix" result="effect1_dropShadow_41_35"/>
<feBlend mode="normal" in="SourceGraphic" in2="effect1_dropShadow_41_35" result="shape"/>
</filter>
<linearGradient id="paint0_linear_41_35" x1="572.422" y1="187.724" x2="299.047" y2="331.857" gradientUnits="userSpaceOnUse">
<stop offset="0.519826" stop-color="#A24ADC"/>
<stop offset="1" stop-color="#712C9F"/>
</linearGradient>
<linearGradient id="paint1_linear_41_35" x1="570.58" y1="99.8454" x2="130.569" y2="-2.4287" gradientUnits="userSpaceOnUse">
<stop offset="0.582648" stop-color="#A24ADC"/>
<stop offset="1" stop-color="#712C9F"/>
</linearGradient>
<clipPath id="clip0_41_35">
<rect width="63.0289" height="62.2404" fill="white" transform="translate(13 113.373) rotate(-16)"/>
</clipPath>
</defs>
</svg>
