<?xml version="1.0" encoding="UTF-8" standalone="no"?>
<svg
   width="159.53625"
   height="164.97626"
   viewBox="0 0 159.53625 164.97626"
   fill="none"
   version="1.1"
   id="svg12"
   xmlns="http://www.w3.org/2000/svg"
   xmlns:svg="http://www.w3.org/2000/svg">
  <g
     clip-path="url(#clip0_41_35)"
     filter="url(#filter0_i_41_35)"
     id="g3"
     transform="matrix(2.5042513,0,0,2.5042513,-49.699278,-255.33755)">
    <path
       d="m 58.3049,157.037 c -13.2238,3.792 -27.0263,-3.746 -30.7707,-16.804 -3.7445,-13.058 3.9646,-26.771 17.1885,-30.563 13.2239,-3.791 27.0263,3.746 30.7708,16.805 3.7444,13.058 -3.9647,26.77 -17.1886,30.562 z M 46.1535,114.66 c -10.4371,2.993 -16.5294,13.813 -13.5724,24.126 2.9571,10.312 13.8576,16.26 24.2947,13.267 C 67.3129,149.061 73.4052,138.24 70.4482,127.928 67.4911,117.615 56.5906,111.667 46.1535,114.66 Z"
       fill="#3688ff"
       id="path2" />
    <path
       d="m 71.7694,112.304 c -0.8106,0.232 -1.714,0.074 -2.4095,-0.498 -1.2839,-1.061 -2.6762,-2.009 -4.1414,-2.809 -1.4653,-0.8 -3.0204,-1.467 -4.6123,-1.972 -1.3749,-0.44 -2.1206,-1.902 -1.6722,-3.263 0.4543,-1.364 1.9368,-2.111 3.31,-1.677 1.91,0.61 3.7723,1.41 5.5261,2.368 1.7537,0.957 3.4294,2.089 4.9662,3.362 1.1077,0.916 1.2516,2.556 0.3114,3.654 -0.3423,0.415 -0.7931,0.696 -1.2783,0.835 z m -48.5881,13.932 c -0.4852,0.139 -1.0165,0.14 -1.5305,-0.023 -1.3749,-0.44 -2.1266,-1.9 -1.6723,-3.263 0.6288,-1.894 1.45,-3.742 2.4297,-5.484 0.9798,-1.741 2.1367,-3.401 3.4319,-4.936 0.9326,-1.102 2.5936,-1.249 3.7013,-0.334 1.1077,0.916 1.2499,2.55 0.3114,3.654 -1.0809,1.278 -2.0479,2.661 -2.8665,4.116 -0.8186,1.456 -1.4989,2.991 -2.0238,4.577 -0.2825,0.846 -0.9706,1.461 -1.7812,1.693 z m 14.2821,41.501 c -0.5089,0.146 -1.0672,0.141 -1.5997,-0.041 -1.3656,-0.475 -2.0732,-1.96 -1.5826,-3.308 l 1.9021,-5.269 c 0.4889,-1.354 1.989,-2.063 3.3546,-1.588 1.3655,0.475 2.0732,1.96 1.5826,3.308 l -1.9021,5.269 c -0.2909,0.817 -0.968,1.403 -1.7549,1.629 z m 44.1861,-12.67 c -0.787,0.225 -1.6659,0.085 -2.359,-0.456 l -4.4051,-3.46 c -1.1322,-0.889 -1.3175,-2.518 -0.4111,-3.644 0.9065,-1.127 2.5558,-1.315 3.6864,-0.431 l 4.4051,3.46 c 1.1322,0.889 1.3175,2.518 0.4111,3.644 -0.3533,0.443 -0.8245,0.742 -1.3274,0.887 z M 52.5869,137.096 c -0.426,0.122 -0.8881,0.141 -1.3347,0.035 -0.9201,-0.217 -1.6432,-0.907 -1.8996,-1.801 l -2.1461,-7.485 c -0.3954,-1.379 0.4147,-2.819 1.8111,-3.219 1.3963,-0.4 2.8464,0.392 3.2418,1.77 l 0.8812,3.074 2.0688,-2.187 c 0.9924,-1.05 2.6515,-1.114 3.7059,-0.139 1.0543,0.975 1.1087,2.616 0.1162,3.665 l -5.2409,5.55 c -0.3396,0.356 -0.754,0.608 -1.2037,0.737 z"
       fill="#5f6379"
       id="path3" />
  </g>
  <defs
     id="defs12">
    <filter
       id="filter0_i_41_35"
       x="13"
       y="96"
       width="77.742996"
       height="81.2024"
       filterUnits="userSpaceOnUse"
       color-interpolation-filters="sRGB">
      <feFlood
         flood-opacity="0"
         result="BackgroundImageFix"
         id="feFlood5" />
      <feBlend
         mode="normal"
         in="SourceGraphic"
         in2="BackgroundImageFix"
         result="shape"
         id="feBlend5" />
      <feColorMatrix
         in="SourceAlpha"
         type="matrix"
         values="0 0 0 0 0 0 0 0 0 0 0 0 0 0 0 0 0 0 127 0"
         result="hardAlpha"
         id="feColorMatrix5" />
      <feOffset
         dy="4"
         id="feOffset5" />
      <feGaussianBlur
         stdDeviation="3.8"
         id="feGaussianBlur5" />
      <feComposite
         in2="hardAlpha"
         operator="arithmetic"
         k2="-1"
         k3="1"
         id="feComposite5"
         k1="0"
         k4="0" />
      <feColorMatrix
         type="matrix"
         values="0 0 0 0 0.633937 0 0 0 0 0.291094 0 0 0 0 0.8625 0 0 0 1 0"
         id="feColorMatrix6" />
      <feBlend
         mode="normal"
         in2="shape"
         result="effect1_innerShadow_41_35"
         id="feBlend6" />
    </filter>
    <clipPath
       id="clip0_41_35">
      <rect
         width="63.0289"
         height="62.240398"
         fill="#ffffff"
         transform="rotate(-16,409.84541,10.436597)"
         id="rect12"
         x="0"
         y="0" />
    </clipPath>
  </defs>
</svg>
